<svg fill="none" height="23" viewBox="0 0 23 23" width="23" xmlns="http://www.w3.org/2000/svg" xmlns:xlink="http://www.w3.org/1999/xlink"><filter id="a" color-interpolation-filters="sRGB" filterUnits="userSpaceOnUse" height="20.72" width="19.152" x="1.81199" y="2.024"><feFlood flood-opacity="0" result="BackgroundImageFix"/><feColorMatrix in="SourceAlpha" result="hardAlpha" type="matrix" values="0 0 0 0 0 0 0 0 0 0 0 0 0 0 0 0 0 0 127 0"/><feOffset/><feGaussianBlur stdDeviation="2.1"/><feComposite in2="hardAlpha" operator="out"/><feColorMatrix type="matrix" values="0 0 0 0 0.800932 0 0 0 0 0.7968 0 0 0 0 0.784115 0 0 0 1 0"/><feBlend in2="BackgroundImageFix" mode="normal" result="effect1_dropShadow_76_9"/><feBlend in="SourceGraphic" in2="effect1_dropShadow_76_9" mode="normal" result="shape"/></filter><linearGradient id="b" gradientUnits="userSpaceOnUse" x1="5" x2="9.5" y1="-10.5" y2="45.5"><stop offset=".355769" stop-color="#ebbab9"/><stop offset=".548077" stop-color="#cccbc8"/></linearGradient><path d="m11.5 0c6.3513 0 11.5 5.14873 11.5 11.5 0 6.3513-5.1487 11.5-11.5 11.5-1.86991 0-3.63423-.4489-5.19488-1.2409-.08501-.0431-.18236-.056-.27529-.0347l-4.97911 1.1402c-.335787.0769-.605254-.2783-.440707-.581l1.811267-3.3312c.07722-.1421.06085-.3162-.03778-.4443-1.493934-1.9403-2.3835-4.37-2.3835-7.0081 0-6.35127 5.14873-11.5 11.5-11.5z" fill="url(#b)"/><g filter="url(#a)"><path d="m8.796 6.224 3.44 8.48-1.344-.272 3.12-8.208h2.752l-5.376 12.32-5.376-12.32z" fill="#fff"/></g></svg>